<svg fill="currentColor" viewBox="0 0 20 20" xmlns="http://www.w3.org/2000/svg"><path d="m10.8346 5.83317h-1.66663v3.33333h-3.33333v1.6667h3.33333v3.3333h1.66663v-3.3333h3.3334v-1.6667h-3.3334zm-.8333-4.16667c-4.6 0-8.33333 3.73334-8.33333 8.33334 0 4.59996 3.73333 8.33336 8.33333 8.33336s8.3333-3.7334 8.3333-8.33336c0-4.6-3.7333-8.33334-8.3333-8.33334zm0 15c-3.675 0-6.66666-2.9917-6.66666-6.66666 0-3.675 2.99166-6.66667 6.66666-6.66667s6.6667 2.99167 6.6667 6.66667c0 3.67496-2.9917 6.66666-6.6667 6.66666z"/></svg>