<svg fill="currentColor" viewBox="0 0 16 16" xmlns="http://www.w3.org/2000/svg"><path d="m2 8.66675h1.33333v-1.33334h-1.33333zm0 2.66665h1.33333v-1.3333h-1.33333zm0-5.33332h1.33333v-1.33333h-1.33333zm2.66667 2.66667h9.33333v-1.33334h-9.33333zm0 2.66665h9.33333v-1.3333h-9.33333zm0-6.66665v1.33333h9.33333v-1.33333zm-2.66667 4h1.33333v-1.33334h-1.33333zm0 2.66665h1.33333v-1.3333h-1.33333zm0-5.33332h1.33333v-1.33333h-1.33333zm2.66667 2.66667h9.33333v-1.33334h-9.33333zm0 2.66665h9.33333v-1.3333h-9.33333zm0-6.66665v1.33333h9.33333v-1.33333z"/></svg>