<svg fill="currentColor" viewBox="0 0 16 16" xmlns="http://www.w3.org/2000/svg"><path d="m13.334 1.33325h-10.66668c-.73334 0-1.33334.6-1.33334 1.33334v10.66671c0 .7333.6 1.3333 1.33334 1.3333h10.66668c.7333 0 1.3333-.6 1.3333-1.3333v-10.66671c0-.73334-.6-1.33334-1.3333-1.33334zm-8.00002 12.00005h-2.66666v-2.6667h2.66666zm0-4.00005h-2.66666v-2.66666h2.66666zm0-4h-2.66666v-2.66666h2.66666zm4 8.00005h-2.66666v-2.6667h2.66666zm0-4.00005h-2.66666v-2.66666h2.66666zm0-4h-2.66666v-2.66666h2.66666zm4.00002 8.00005h-2.6667v-2.6667h2.6667zm0-4.00005h-2.6667v-2.66666h2.6667zm0-4h-2.6667v-2.66666h2.6667z"/></svg>