<svg fill="currentColor" viewBox="0 0 16 16" xmlns="http://www.w3.org/2000/svg"><path d="m9.59398 7.37662 1.07332 1.07333v-1.07333zm1.74002-2.66667h-2.66668v1.26667h2.66668c1.14 0 2.0667.92666 2.0667 2.06666 0 .84667-.5134 1.58001-1.2467 1.89334l.9333.93338c.9467-.5867 1.58-1.63338 1.58-2.82672 0-1.84-1.4933-3.33333-3.3333-3.33333zm-10.00002-1.82 2.07334 2.07333c-1.21334.49334-2.07334 1.68667-2.07334 3.08 0 1.84 1.49334 3.33332 3.33334 3.33332h2.66666v-1.2666h-2.66666c-1.14 0-2.06667-.92672-2.06667-2.06672 0-1.06.80667-1.93333 1.84-2.04666l1.38 1.38h-.48667v1.33333h1.82l1.51334 1.51335v1.1533h1.15333l2.67335 2.6734.94-.94-11.16002-11.16005z"/></svg>