<svg width="16" height="17" viewBox="0 0 16 17" fill="none" xmlns="http://www.w3.org/2000/svg">
<path fill-rule="evenodd" clip-rule="evenodd" d="M7.17625 0.85311C7.6788 0.557752 8.30037 0.557752 8.80292 0.85311L14.2252 4.0271C14.7277 4.32246 15.0407 4.86909 15.0407 5.4554V11.8078C15.0407 12.3985 14.7321 12.9451 14.2252 13.2361L8.80292 16.4101C8.30037 16.7054 7.6788 16.7054 7.17625 16.4101L1.75402 13.2405C1.25147 12.9451 0.938477 12.3985 0.938477 11.8122V5.4598C0.938477 4.86909 1.24706 4.32246 1.75402 4.03151L7.17625 0.85311Z" fill="url(#paint0_linear_1379_2969)"/>
<path d="M6.595 7.75799C6.58381 7.79156 6.58008 7.82513 6.58008 7.8587V9.20151C6.58008 9.32833 6.64722 9.44397 6.75166 9.50365L7.89678 10.1751C7.95273 10.2086 8.01241 10.2235 8.07582 10.2198V8.61963L6.595 7.75426V7.75799Z" fill="white"/>
<path d="M6.75166 10.5518C6.7069 10.5257 6.6696 10.4884 6.64349 10.4511C6.60246 10.507 6.58008 10.5779 6.58008 10.6525V13.3903C6.58008 13.5171 6.64722 13.6328 6.75166 13.6925L7.89678 14.3639C7.95273 14.3974 8.01241 14.4124 8.07582 14.4086V11.2679C8.01614 11.2679 7.95273 11.253 7.89678 11.2232L6.75166 10.5518Z" fill="white"/>
<path d="M8.07582 10.2235C8.13177 10.2235 8.19145 10.2086 8.24367 10.1788L9.38879 9.50737C9.49696 9.44396 9.56037 9.32833 9.56037 9.20524V7.86243C9.56037 7.82886 9.55664 7.79902 9.54545 7.76918L8.07209 8.62708V10.2273L8.07582 10.2235Z" fill="#DCDBDB"/>
<path d="M8.24358 14.3676L9.3887 13.6962C9.49687 13.6328 9.56028 13.5172 9.56028 13.3941V10.6562C9.56028 10.5816 9.5379 10.5107 9.49687 10.4548C9.46703 10.4958 9.42973 10.5294 9.3887 10.5555L8.24358 11.2269C8.19136 11.2568 8.13541 11.2717 8.07573 11.2717V14.4124C8.13168 14.4124 8.19136 14.3974 8.24358 14.3676Z" fill="#DCDBDB"/>
<path d="M9.54883 7.76172C9.52645 7.67593 9.4705 7.60133 9.38844 7.55283L8.24332 6.88143C8.1911 6.85159 8.13515 6.83667 8.07547 6.83667C8.01579 6.83667 7.95238 6.85159 7.89643 6.88143L6.75131 7.55283C6.67298 7.5976 6.61738 7.6722 6.595 7.75799L8.07573 8.62334L9.54883 7.76545V7.76172Z" fill="#E2E2E2"/>
<defs>
<linearGradient id="paint0_linear_1379_2969" x1="7.98959" y1="0.631592" x2="7.98959" y2="16.6316" gradientUnits="userSpaceOnUse">
<stop stop-color="#64D061"/>
<stop offset="0.71875" stop-color="#60B5B2"/>
</linearGradient>
</defs>
</svg>