<svg
									width="20"
									height="10"
									viewBox="0 0 20 10"
									fill="none"
									xmlns="http://www.w3.org/2000/svg"
								>
									<path
										d="M0.0899999 9.79928H1.75V2.75928H0.0899999M0.92 1.83928C1.03986 1.84195 1.15905 1.82064 1.27056 1.7766C1.38207 1.73257 1.48366 1.6667 1.56936 1.58286C1.65507 1.49902 1.72315 1.3989 1.76963 1.28838C1.8161 1.17787 1.84003 1.05918 1.84 0.939285C1.84 0.439285 1.44 0.0392848 0.92 0.0392848C0.800138 0.0366205 0.680952 0.0579316 0.56944 0.101966C0.457928 0.146001 0.356338 0.211873 0.270635 0.295712C0.184933 0.379552 0.116845 0.479669 0.0703702 0.590187C0.0238955 0.700704 -2.95792e-05 0.819393 2.74444e-08 0.939285C2.74444e-08 1.43928 0.4 1.83928 0.92 1.83928ZM7.25 0.0592847C4.46 0.0592847 2.7 1.95928 2.7 4.99928C2.7 8.05928 4.46 9.95928 7.25 9.95928C10.04 9.95928 11.8 8.05928 11.8 4.99928C11.8 1.95928 10.04 0.0592847 7.25 0.0592847ZM7.25 1.49928C8.96 1.49928 10.05 2.86928 10.05 4.99928C10.05 7.14928 8.96 8.49928 7.25 8.49928C5.54 8.49928 4.46 7.14928 4.46 4.99928C4.46 2.86928 5.54 1.49928 7.25 1.49928ZM12.5 7.10928C12.57 8.86928 14 9.95928 16.22 9.95928C18.54 9.95928 20 8.81928 20 6.99928C20 5.56928 19.18 4.76928 17.23 4.31928L16.13 4.06928C14.95 3.78928 14.47 3.41928 14.47 2.77928C14.47 1.99928 15.2 1.44928 16.28 1.44928C17.38 1.44928 18.13 1.99929 18.21 2.88929H19.84C19.8 1.19929 18.41 0.0592847 16.29 0.0592847C14.21 0.0592847 12.73 1.20928 12.73 2.90928C12.73 4.27928 13.56 5.12928 15.33 5.52928L16.57 5.81928C17.78 6.10928 18.27 6.49928 18.27 7.19928C18.27 7.99928 17.47 8.56928 16.31 8.56928C15.15 8.56928 14.26 7.99928 14.16 7.10928H12.5Z"
										fill="#1B76C6"
									/>
								</svg>