<svg
									width="16"
									height="20"
									viewBox="0 0 16 20"
									fill="none"
									xmlns="http://www.w3.org/2000/svg"
								>
									<path
										d="M8 1.00057C9.33 1.00057 10.584 1.32457 11.687 1.89957L12.293 1.29357C12.3853 1.19806 12.4956 1.12188 12.6176 1.06947C12.7396 1.01706 12.8708 0.989473 13.0036 0.988319C13.1364 0.987165 13.2681 1.01247 13.391 1.06275C13.5139 1.11303 13.6255 1.18728 13.7194 1.28117C13.8133 1.37507 13.8875 1.48672 13.9378 1.60962C13.9881 1.73251 14.0134 1.86419 14.0123 1.99697C14.0111 2.12975 13.9835 2.26097 13.9311 2.38297C13.8787 2.50498 13.8025 2.61532 13.707 2.70757L13.357 3.05757C14.1901 3.80706 14.8561 4.72362 15.3115 5.74757C15.7668 6.77153 16.0015 7.87992 16 9.00057V17.0006C16 17.7962 15.6839 18.5593 15.1213 19.1219C14.5587 19.6845 13.7957 20.0006 13 20.0006H3C2.20436 20.0006 1.44129 19.6845 0.878684 19.1219C0.316075 18.5593 4.4267e-06 17.7962 4.4267e-06 17.0006V9.00057C-0.00117579 7.88001 0.233653 6.77177 0.689201 5.74799C1.14475 4.72421 1.81081 3.80785 2.644 3.05857L2.293 2.70857C2.10536 2.52106 1.9999 2.26669 1.9998 2.00142C1.99971 1.73615 2.105 1.48171 2.2925 1.29407C2.48001 1.10643 2.73438 1.00096 2.99965 1.00087C3.26492 1.00077 3.51936 1.10606 3.707 1.29357L4.313 1.89957C5.45163 1.30725 6.71653 0.998836 8 1.00057ZM14 12.0006H2V17.0006C2 17.2658 2.10536 17.5201 2.2929 17.7077C2.48043 17.8952 2.73479 18.0006 3 18.0006H13C13.2652 18.0006 13.5196 17.8952 13.7071 17.7077C13.8946 17.5201 14 17.2658 14 17.0006V12.0006ZM8 3.00057C6.44762 3.00051 4.95564 3.60214 3.83753 4.67903C2.71942 5.75593 2.06222 7.22428 2.004 8.77557L2 9.00057V10.0006H14V9.00057C14 7.40927 13.3679 5.88315 12.2426 4.75793C11.1174 3.63271 9.5913 3.00057 8 3.00057ZM5 6.00057C5.26522 6.00057 5.51957 6.10593 5.70711 6.29346C5.89465 6.481 6 6.73535 6 7.00057C6 7.26579 5.89465 7.52014 5.70711 7.70768C5.51957 7.89521 5.26522 8.00057 5 8.00057C4.73479 8.00057 4.48043 7.89521 4.2929 7.70768C4.10536 7.52014 4 7.26579 4 7.00057C4 6.73535 4.10536 6.481 4.2929 6.29346C4.48043 6.10593 4.73479 6.00057 5 6.00057ZM11 6.00057C11.2652 6.00057 11.5196 6.10593 11.7071 6.29346C11.8946 6.481 12 6.73535 12 7.00057C12 7.26579 11.8946 7.52014 11.7071 7.70768C11.5196 7.89521 11.2652 8.00057 11 8.00057C10.7348 8.00057 10.4804 7.89521 10.2929 7.70768C10.1054 7.52014 10 7.26579 10 7.00057C10 6.73535 10.1054 6.481 10.2929 6.29346C10.4804 6.10593 10.7348 6.00057 11 6.00057Z"
										fill="#1B76C6"
									/>
								</svg>