<svg viewBox="0 0 178 202" preserveAspectRatio="xMidYMid meet" fill="none" xmlns="http://www.w3.org/2000/svg">
  <path fill-rule="evenodd" clip-rule="evenodd" d="M78.6435 2.79282C84.9795 -0.93094 92.8161 -0.93094 99.152 2.79282L167.514 42.8093C173.849 46.5331 177.796 53.4248 177.796 60.8167V140.905C177.796 148.353 173.905 155.245 167.514 158.913L99.152 198.929C92.8161 202.653 84.9795 202.653 78.6435 198.929L10.282 158.968C3.94607 155.245 0 148.353 0 140.961V60.8723C0 53.4248 3.89049 46.5331 10.282 42.8649L78.6435 2.79282Z" fill="#753BBD"/>
  <path d="M91.8148 74.2204C102.286 74.2204 111.325 79.0146 116.638 87.3522L117.162 88.175L131 74.2862L130.596 73.7377C121.655 61.8347 107.522 55 91.8257 55C78.0098 55 66.3034 59.7283 57.0127 69.0533C47.711 78.3892 43 90.1387 43 104.005C43 117.872 47.711 129.49 56.9908 138.947C66.2816 148.272 77.988 153 91.8039 153C107.5 153 121.633 146.176 130.574 134.262L130.978 133.725L117.14 119.836L116.616 120.659C111.304 129.007 102.253 133.802 91.7929 133.802C83.2782 133.802 76.4031 131.059 70.7849 125.42C65.112 119.628 62.3467 112.628 62.3467 104.016C62.3467 95.4046 65.1011 88.4273 70.7849 82.7336C76.3921 77.0179 83.2673 74.2314 91.7929 74.2314" fill="#F5F5F5"/>
</svg>