<svg
									width="60"
									height="60"
									viewBox="0 0 216 82"
									fill="none"
									xmlns="http://www.w3.org/2000/svg"
								>
									<path
										d="M18.2111 11.1306H16.6492C13.5211 11.1306 10.9854 13.6663 10.9854 16.7944V19.8727C10.9854 23.0008 13.5211 25.5366 16.6492 25.5366H18.2111C21.3391 25.5366 23.8749 23.0008 23.8749 19.8727V16.7944C23.8749 13.6663 21.3391 11.1306 18.2111 11.1306Z"
										fill="white"
									/>
									<path
										fill-rule="evenodd"
										clip-rule="evenodd"
										d="M12.2021 25.5358L12.5054 35.3926L17.0547 38.4254L22.3622 35.3926V24.5502L17.2822 25.9756L12.4827 24.5502L12.2021 25.5358Z"
										fill="white"
									/>
									<path
										fill-rule="evenodd"
										clip-rule="evenodd"
										d="M12.0723 35.4365L17.4707 39.5991V15.0938H12.2163L12.0723 35.4365Z"
										fill="white"
									/>
									<path
										fill-rule="evenodd"
										clip-rule="evenodd"
										d="M22.8711 34.2988L17.4727 38.469V13.9561H22.7271L22.8711 34.2988Z"
										fill="#DBDBDB"
									/>
									<path
										fill-rule="evenodd"
										clip-rule="evenodd"
										d="M12.542 11.7591V17.4911L17.4704 20.3647L22.3987 17.4911V11.7591L17.4704 8.88544L12.542 11.7591Z"
										fill="#E2E2E2"
									/>
									<path
										fill-rule="evenodd"
										clip-rule="evenodd"
										d="M15.4613 1.02326C16.6972 0.302957 18.2136 0.302957 19.4495 1.02326L32.7333 8.80249C33.9692 9.52279 34.7274 10.8648 34.7274 12.3054V27.8715C34.7274 29.3197 33.9692 30.6541 32.7333 31.3744L19.4495 39.1537C18.2136 39.874 16.6972 39.874 15.4613 39.1537L2.16987 31.3744C0.933992 30.6541 0.175781 29.3121 0.175781 27.8715V12.3054C0.175781 10.8572 0.933992 9.52279 2.16987 8.80249L15.4613 1.02326ZM16.955 15.3231C17.2658 15.1411 17.6449 15.1411 17.9558 15.3231L21.2768 17.2717C21.5876 17.4537 21.7772 17.7873 21.7772 18.1512V22.0408C21.7772 22.4048 21.5876 22.7384 21.2768 22.9204L17.9558 24.869C17.6449 25.0509 17.2658 25.0509 16.955 24.869L13.634 22.9204C13.3231 22.7384 13.1336 22.4048 13.1336 22.0408V18.1512C13.1336 17.7873 13.3231 17.4537 13.634 17.2717L16.955 15.3231ZM13.1336 26.2413C13.1336 26.029 13.2018 25.8243 13.3156 25.6575C13.399 25.7712 13.5051 25.8774 13.634 25.9532L16.955 27.9018C17.2658 28.0838 17.6449 28.0838 17.9558 27.9018L21.2768 25.9532C21.4057 25.8774 21.5118 25.7788 21.5952 25.6575C21.709 25.8243 21.7772 26.029 21.7772 26.2413V30.131C21.7772 30.131 21.7772 30.184 21.7772 30.2068C21.7772 30.2295 21.7772 30.2598 21.7772 30.2826V34.1722C21.7772 34.5362 21.5876 34.8698 21.2768 35.0517L17.9558 37.0003C17.6449 37.1823 17.2658 37.1823 16.955 37.0003L13.634 35.0517C13.3231 34.8698 13.1336 34.5362 13.1336 34.1722V30.2826C13.1336 30.2826 13.1336 30.2295 13.1336 30.2068C13.1336 30.184 13.1336 30.1537 13.1336 30.131V26.2413Z"
										fill="#753BBD"
									/>
									<path
										d="M41.8535 16.0249H45.7226V31.6881H41.8535V16.0249Z"
										fill="white"
									/>
									<path
										d="M51.8653 31.6893V19.2604H48.8545V16.0261H51.8653V11.1423H55.7344V16.0261H58.7774V19.2604H55.7344V31.6893H51.8653Z"
										fill="white"
									/>
									<path
										d="M60.3369 23.8556C60.3369 18.9395 63.5387 15.5464 68.137 15.5464C72.7352 15.5464 75.8106 18.6866 75.8106 23.5677V24.7409L64.015 24.7732C64.3002 27.5313 65.7585 28.9278 68.328 28.9278C70.4536 28.9278 71.8473 28.1044 72.2912 26.6137H75.8751C75.2105 30.0391 72.3558 32.1003 68.2661 32.1003C63.606 32.1003 60.3396 28.7071 60.3396 23.8556H60.3369ZM64.1091 22.303H71.9738C71.9738 20.1477 70.4832 18.7189 68.1692 18.7189C65.8553 18.7189 64.4912 19.9566 64.1118 22.303H64.1091Z"
										fill="white"
									/>
									<path
										d="M78.918 31.6878V16.0246H82.4696L82.7871 17.8625C83.5808 16.5628 85.1655 15.5484 87.4176 15.5484C89.7961 15.5484 91.4454 16.7215 92.2687 18.5298C93.0624 16.7215 94.9001 15.5484 97.2786 15.5484C101.083 15.5484 103.176 17.8302 103.176 21.4466V31.6878H99.3396V22.461C99.3396 20.2088 98.1342 19.0356 96.2966 19.0356C94.4589 19.0356 92.9979 20.2411 92.9979 22.8082V31.6878H89.1288V22.4288C89.1288 20.2411 87.9557 19.0679 86.118 19.0679C84.2803 19.0679 82.7897 20.2734 82.7897 22.8108V31.6905H78.9207L78.918 31.6878Z"
										fill="white"
									/>
									<path
										d="M45.1317 8.39545H42.4694C42.1276 8.39545 41.8506 8.69421 41.8506 9.06276V11.9339C41.8506 12.3024 42.1276 12.6012 42.4694 12.6012H45.1317C45.4734 12.6012 45.7505 12.3024 45.7505 11.9339V9.06276C45.7505 8.69421 45.4734 8.39545 45.1317 8.39545Z"
										fill="white"
									/>
									<path
										d="M198.075 80.9884H193.333V49.7643H198.453V63.278C199.796 60.9697 202.566 59.5848 205.714 59.5848C211.631 59.5848 215.24 64.2013 215.24 70.7482C215.24 77.1273 211.337 81.534 205.378 81.534C202.272 81.534 199.628 80.149 198.411 77.7569L198.075 80.9884ZM198.495 70.5384C198.495 74.2735 200.803 76.8336 204.329 76.8336C207.938 76.8336 210.078 74.2316 210.078 70.5384C210.078 66.8452 207.938 64.2013 204.329 64.2013C200.803 64.2013 198.495 66.8033 198.495 70.5384Z"
										fill="white"
									/>
									<path
										d="M182.925 60.2563H188.045V80.9884H183.302L182.925 78.2185C181.666 80.191 178.98 81.534 176.21 81.534C171.426 81.534 168.614 78.3024 168.614 73.2243V60.2563H173.734V71.4197C173.734 75.3647 175.287 76.9595 178.14 76.9595C181.372 76.9595 182.925 75.0709 182.925 71.1259V60.2563Z"
										fill="white"
									/>
									<path
										d="M144.356 80.9884H138.984V50.3099H144.356V62.9842H157.954V50.3099H163.326V80.9884H157.954V67.9784H144.356V80.9884Z"
										fill="white"
									/>
									<path
										d="M128.251 60.1723V64.9147H126.363C122.67 64.9147 120.361 66.8872 120.361 70.9161V80.9884H115.241V60.2983H120.068L120.361 63.3199C121.243 61.2635 123.215 59.8786 125.985 59.8786C126.698 59.8786 127.412 59.9625 128.251 60.1723Z"
										fill="white"
									/>
									<path
										d="M101.155 81.534C94.9858 81.534 90.6631 77.0434 90.6631 70.6223C90.6631 64.1173 94.9018 59.6268 100.987 59.6268C107.198 59.6268 111.143 63.7816 111.143 70.2446V71.7974L95.5314 71.8394C95.9091 75.4906 97.8396 77.3372 101.239 77.3372C104.051 77.3372 105.897 76.246 106.485 74.2735H111.227C110.346 78.806 106.569 81.534 101.155 81.534ZM101.029 63.8235C98.0075 63.8235 96.1609 65.4603 95.6573 68.5659H106.065C106.065 65.7121 104.093 63.8235 101.029 63.8235Z"
										fill="white"
									/>
									<path
										d="M84.8736 80.9884H79.7535V64.537H75.7666V60.2563H79.7535V53.7933H84.8736V60.2563H88.9025V64.537H84.8736V80.9884Z"
										fill="white"
									/>
									<path
										d="M58.2294 80.9884H53.1094V60.2563H57.8517L58.2714 62.9422C59.5724 60.8438 62.0905 59.6268 64.9023 59.6268C70.1063 59.6268 72.7923 62.8583 72.7923 68.2302V80.9884H67.6722V69.4472C67.6722 65.9639 65.9515 64.2852 63.3075 64.2852C60.16 64.2852 58.2294 66.4675 58.2294 69.8249V80.9884Z"
										fill="white"
									/>
									<path
										d="M45.2594 56.1015C43.4968 56.1015 42.1118 54.7165 42.1118 52.9959C42.1118 51.2752 43.4968 49.9322 45.2594 49.9322C46.9381 49.9322 48.323 51.2752 48.323 52.9959C48.323 54.7165 46.9381 56.1015 45.2594 56.1015ZM42.6994 80.9884V60.2563H47.8194V80.9884H42.6994Z"
										fill="white"
									/>
									<path
										d="M39.2336 60.1723V64.9147H37.3451C33.6519 64.9147 31.3437 66.8872 31.3437 70.9161V80.9884H26.2236V60.2983H31.0499L31.3437 63.3199C32.225 61.2635 34.1975 59.8786 36.9674 59.8786C37.6808 59.8786 38.3943 59.9625 39.2336 60.1723Z"
										fill="white"
									/>
									<path
										d="M12.3045 70.4125H5.54766V80.9884H0.175781V50.3099H12.3045C18.4737 50.3099 22.4607 54.3388 22.4607 60.3402C22.4607 66.2577 18.4318 70.4125 12.3045 70.4125ZM11.2553 55.0942H5.54766V65.6282H11.1713C14.8645 65.6282 16.837 63.6557 16.837 60.2983C16.837 56.9408 14.8225 55.0942 11.2553 55.0942Z"
										fill="white"
									/>
								</svg>