<svg width="24" height="25" viewBox="0 0 24 25" fill="none" xmlns="http://www.w3.org/2000/svg">
<g id="Material Design Icons/Outlined" clip-path="url(#clip0_3937_3597)">
<path id="Vector" d="M19.35 10.3701C18.67 6.92008 15.64 4.33008 12 4.33008C9.11 4.33008 6.61 5.97008 5.36 8.37008C2.35 8.69008 0 11.2301 0 14.3301C0 17.6401 2.69 20.3301 6 20.3301H19C21.76 20.3301 24 18.0901 24 15.3301C24 12.6901 21.95 10.5501 19.35 10.3701ZM19 18.3301H6C3.79 18.3301 2 16.5401 2 14.3301C2 12.1201 3.79 10.3301 6 10.3301C8.21 10.3301 10 12.1201 10 14.3301H12C12 11.5701 10.14 9.25008 7.6 8.55008C8.61 7.21008 10.2 6.33008 12 6.33008C15.03 6.33008 17.5 8.80008 17.5 11.8301V12.3301H19C20.65 12.3301 22 13.6801 22 15.3301C22 16.9801 20.65 18.3301 19 18.3301Z" fill="white"/>
</g>
<defs>
<clipPath id="clip0_3937_3597">
<rect width="24" height="24" fill="white" transform="translate(0 0.330078)"/>
</clipPath>
</defs>
</svg>
