<svg  width="189" height="100" viewBox="0 0 133 67" fill="none" xmlns="http://www.w3.org/2000/svg">
<path d="M14.4198 8.51306H13.171C10.67 8.51306 8.64258 10.5405 8.64258 13.0415V15.5027C8.64258 18.0037 10.67 20.0312 13.171 20.0312H14.4198C16.9208 20.0312 18.9482 18.0037 18.9482 15.5027V13.0415C18.9482 10.5405 16.9208 8.51306 14.4198 8.51306Z" fill="white"/>
<path fill-rule="evenodd" clip-rule="evenodd" d="M9.61523 20.0306L9.85772 27.9114L13.495 30.3362L17.7385 27.9114V19.2425L13.6769 20.3822L9.83953 19.2425L9.61523 20.0306Z" fill="white"/>
<path fill-rule="evenodd" clip-rule="evenodd" d="M9.51172 27.9465L13.828 31.2746V11.6818H9.6269L9.51172 27.9465Z" fill="white"/>
<path fill-rule="evenodd" clip-rule="evenodd" d="M18.1454 27.0369L13.8291 30.3711V10.7722H18.0302L18.1454 27.0369Z" fill="#DBDBDB"/>
<path fill-rule="evenodd" clip-rule="evenodd" d="M9.88672 9.01557V13.5986L13.8271 15.8961L17.7675 13.5986V9.01557L13.8271 6.71802L9.88672 9.01557Z" fill="#E2E2E2"/>
<path fill-rule="evenodd" clip-rule="evenodd" d="M12.2213 0.431928C13.2094 -0.143976 14.4219 -0.143976 15.41 0.431928L26.0309 6.6517C27.019 7.2276 27.6252 8.3006 27.6252 9.45241V21.898C27.6252 23.0559 27.019 24.1228 26.0309 24.6987L15.41 30.9185C14.4219 31.4944 13.2094 31.4944 12.2213 30.9185L1.59435 24.6987C0.606215 24.1228 0 23.0498 0 21.898V9.45241C0 8.29454 0.606215 7.2276 1.59435 6.6517L12.2213 0.431928ZM13.4155 11.8651C13.6641 11.7197 13.9672 11.7197 14.2157 11.8651L16.871 13.4231C17.1195 13.5686 17.2711 13.8353 17.2711 14.1263V17.2362C17.2711 17.5272 17.1195 17.7939 16.871 17.9394L14.2157 19.4974C13.9672 19.6429 13.6641 19.6429 13.4155 19.4974L10.7603 17.9394C10.5118 17.7939 10.3602 17.5272 10.3602 17.2362V14.1263C10.3602 13.8353 10.5118 13.5686 10.7603 13.4231L13.4155 11.8651ZM10.3602 20.5946C10.3602 20.4249 10.4148 20.2612 10.5057 20.1279C10.5724 20.2188 10.6573 20.3037 10.7603 20.3643L13.4155 21.9223C13.6641 22.0677 13.9672 22.0677 14.2157 21.9223L16.871 20.3643C16.974 20.3037 17.0589 20.2249 17.1256 20.1279C17.2165 20.2612 17.2711 20.4249 17.2711 20.5946V23.7045C17.2711 23.7045 17.2711 23.747 17.2711 23.7651C17.2711 23.7833 17.2711 23.8076 17.2711 23.8258V26.9357C17.2711 27.2266 17.1195 27.4934 16.871 27.6389L14.2157 29.1968C13.9672 29.3423 13.6641 29.3423 13.4155 29.1968L10.7603 27.6389C10.5118 27.4934 10.3602 27.2266 10.3602 26.9357V23.8258C10.3602 23.8258 10.3602 23.7833 10.3602 23.7651C10.3602 23.747 10.3602 23.7227 10.3602 23.7045V20.5946Z" fill="#753BBD"/>
<path d="M33.3223 12.4263H36.4157V24.9495H33.3223V12.4263Z" fill="white"/>
<path d="M41.3271 24.9505V15.0132H38.9199V12.4272H41.3271V8.52243H44.4206V12.4272H46.8536V15.0132H44.4206V24.9505H41.3271Z" fill="white"/>
<path d="M48.1006 18.6872C48.1006 14.7566 50.6605 12.0437 54.337 12.0437C58.0134 12.0437 60.4723 14.5544 60.4723 18.457V19.395L51.0413 19.4208C51.2693 21.626 52.4353 22.7426 54.4897 22.7426C56.1892 22.7426 57.3035 22.0843 57.6585 20.8924H60.5239C59.9926 23.6311 57.7101 25.2791 54.4403 25.2791C50.7143 25.2791 48.1027 22.5662 48.1027 18.6872H48.1006ZM51.1166 17.4459H57.4046C57.4046 15.7226 56.2129 14.5802 54.3628 14.5802C52.5128 14.5802 51.4221 15.5698 51.1188 17.4459H51.1166Z" fill="white"/>
<path d="M62.957 24.9493V12.426H65.7966L66.0505 13.8954C66.6851 12.8563 67.9522 12.0452 69.7528 12.0452C71.6544 12.0452 72.9731 12.9832 73.6314 14.429C74.266 12.9832 75.7353 12.0452 77.637 12.0452C80.6788 12.0452 82.3525 13.8696 82.3525 16.7611V24.9493H79.2848V17.5722C79.2848 15.7714 78.3211 14.8334 76.8518 14.8334C75.3825 14.8334 74.2144 15.7973 74.2144 17.8497V24.9493H71.1209V17.5463C71.1209 15.7973 70.183 14.8593 68.7137 14.8593C67.2444 14.8593 66.0526 15.8231 66.0526 17.8518V24.9514H62.9592L62.957 24.9493Z" fill="white"/>
<path d="M35.9437 6.32623H33.815C33.5418 6.32623 33.3203 6.56511 33.3203 6.85977V9.15533C33.3203 9.44999 33.5418 9.68886 33.815 9.68886H35.9437C36.2169 9.68886 36.4384 9.44999 36.4384 9.15533V6.85977C36.4384 6.56511 36.2169 6.32623 35.9437 6.32623Z" fill="white"/>
<path d="M132.793 66.3652H128.111V37.5781H132.793V66.3652Z" fill="white"/>
<path d="M111.751 66.8682C107.688 66.8682 105.212 64.508 105.212 60.9096C105.212 57.3886 107.766 55.1831 112.293 54.8349L118.019 54.4093V53.9837C118.019 51.3913 116.471 50.3466 114.072 50.3466C111.287 50.3466 109.739 51.5073 109.739 53.5193H105.715C105.715 49.3793 109.12 46.6708 114.305 46.6708C119.451 46.6708 122.623 49.4567 122.623 54.7575V66.3652H118.483L118.135 63.5407C117.323 65.514 114.73 66.8682 111.751 66.8682ZM113.299 63.3085C116.201 63.3085 118.058 61.5674 118.058 58.6267V57.6207L114.072 57.9303C111.132 58.2011 110.01 59.1684 110.01 60.7161C110.01 62.4573 111.171 63.3085 113.299 63.3085Z" fill="white"/>
<path d="M102.849 47.1739V51.5461H101.108C97.703 51.5461 95.575 53.3647 95.575 57.0791V66.3653H90.8545V47.29H95.3041L95.575 50.0758C96.3875 48.1799 98.206 46.903 100.76 46.903C101.417 46.903 102.075 46.9804 102.849 47.1739Z" fill="white"/>
<path d="M83.4324 66.3653H78.7119V51.1979H75.0361V47.2513H78.7119V41.2927H83.4324V47.2513H87.1468V51.1979H83.4324V66.3653Z" fill="white"/>
<path d="M58.0935 66.3652H53.373V47.2512H57.7453L58.1322 49.7275C59.3317 47.7929 61.6532 46.6708 64.2456 46.6708C69.0434 46.6708 71.5197 49.6501 71.5197 54.6027V66.3652H66.7993V55.7248C66.7993 52.5133 65.2129 50.9657 62.7753 50.9657C59.8734 50.9657 58.0935 52.9777 58.0935 56.073V66.3652Z" fill="white"/>
<path d="M39.6125 66.8682C33.9248 66.8682 29.9395 62.7281 29.9395 56.8082C29.9395 50.8109 33.8474 46.6708 39.4578 46.6708C45.1842 46.6708 48.8213 50.5013 48.8213 56.46V57.8916L34.4278 57.9303C34.776 61.2965 36.5558 62.999 39.6899 62.999C42.2823 62.999 43.9848 61.993 44.5265 60.1744H48.8987C48.0862 64.3532 44.6038 66.8682 39.6125 66.8682ZM39.4965 50.54C36.7106 50.54 35.0081 52.049 34.5438 54.9123H44.1395C44.1395 52.2812 42.321 50.54 39.4965 50.54Z" fill="white"/>
<path d="M13.581 66.8297C5.33954 66.8297 0 61.1032 0 52.2426C0 43.4595 5.533 37.6169 13.8132 37.6169C20.5069 37.6169 25.4982 41.5249 26.4656 47.5996H21.2421C20.2748 44.3107 17.4502 42.3761 13.6971 42.3761C8.47362 42.3761 5.18477 46.1679 5.18477 52.204C5.18477 58.2013 8.51231 62.0705 13.6971 62.0705C17.5276 62.0705 20.4682 60.0585 21.3969 56.9244H26.5429C25.4596 62.883 20.2748 66.8297 13.581 66.8297Z" fill="white"/>
</svg>
