<svg width="32" height="33" viewBox="0 0 32 33" fill="none" xmlns="http://www.w3.org/2000/svg">
<g clip-path="url(#clip0_516_5743)">
<rect y="0.971436" width="32" height="32" rx="8" fill="#21232B"/>
<path d="M10.8024 20.9714H18.1357C18.5024 20.9714 18.8024 20.6714 18.8024 20.3048C18.8024 19.9381 18.5024 19.6381 18.1357 19.6381H10.8024C10.4357 19.6381 10.1357 19.9381 10.1357 20.3048C10.1357 20.6714 10.4357 20.9714 10.8024 20.9714ZM10.8024 17.6381H16.1357C16.5024 17.6381 16.8024 17.3381 16.8024 16.9714C16.8024 16.6048 16.5024 16.3048 16.1357 16.3048H10.8024C10.4357 16.3048 10.1357 16.6048 10.1357 16.9714C10.1357 17.3381 10.4357 17.6381 10.8024 17.6381ZM10.1357 13.6381C10.1357 14.0048 10.4357 14.3048 10.8024 14.3048H18.1357C18.5024 14.3048 18.8024 14.0048 18.8024 13.6381C18.8024 13.2714 18.5024 12.9714 18.1357 12.9714H10.8024C10.4357 12.9714 10.1357 13.2714 10.1357 13.6381ZM21.6691 18.8914L19.7491 16.9714L21.6691 15.0514C21.9291 14.7914 21.9291 14.3714 21.6691 14.1114C21.4091 13.8514 20.9891 13.8514 20.7291 14.1114L18.3357 16.5048C18.0757 16.7648 18.0757 17.1848 18.3357 17.4448L20.7291 19.8381C20.9891 20.0981 21.4091 20.0981 21.6691 19.8381C21.9224 19.5781 21.9291 19.1514 21.6691 18.8914Z" fill="white"/>
</g>
<defs>
<clipPath id="clip0_516_5743">
<rect y="0.971436" width="32" height="32" rx="8" fill="white"/>
</clipPath>
</defs>
</svg>
