<svg width="32" height="32" viewBox="0 0 32 32" fill="none" xmlns="http://www.w3.org/2000/svg">
<g clip-path="url(#clip0_770_746)">
<rect width="32" height="32" rx="8" transform="matrix(-1 0 0 1 32 0.00305176)" fill="#333847"/>
<path d="M21.1976 20.0031H13.8643C13.4976 20.0031 13.1976 19.7031 13.1976 19.3364C13.1976 18.9697 13.4976 18.6697 13.8643 18.6697H21.1976C21.5643 18.6697 21.8643 18.9697 21.8643 19.3364C21.8643 19.7031 21.5643 20.0031 21.1976 20.0031ZM21.1976 16.6697H15.8643C15.4976 16.6697 15.1976 16.3697 15.1976 16.0031C15.1976 15.6364 15.4976 15.3364 15.8643 15.3364H21.1976C21.5643 15.3364 21.8643 15.6364 21.8643 16.0031C21.8643 16.3697 21.5643 16.6697 21.1976 16.6697ZM21.8643 12.6697C21.8643 13.0364 21.5643 13.3364 21.1976 13.3364H13.8643C13.4976 13.3364 13.1976 13.0364 13.1976 12.6697C13.1976 12.3031 13.4976 12.0031 13.8643 12.0031H21.1976C21.5643 12.0031 21.8643 12.3031 21.8643 12.6697ZM10.3309 17.9231L12.2509 16.0031L10.3309 14.0831C10.0709 13.8231 10.0709 13.4031 10.3309 13.1431C10.5909 12.8831 11.0109 12.8831 11.2709 13.1431L13.6643 15.5364C13.9243 15.7964 13.9243 16.2164 13.6643 16.4764L11.2709 18.8697C11.0109 19.1297 10.5909 19.1297 10.3309 18.8697C10.0776 18.6097 10.0709 18.1831 10.3309 17.9231Z" fill="#F7F7F7"/>
</g>
<defs>
<clipPath id="clip0_770_746">
<rect width="32" height="32" rx="8" transform="matrix(-1 0 0 1 32 0.00305176)" fill="white"/>
</clipPath>
</defs>
</svg>
