<svg data-v-4b13fed1="" width="17" height="17" fill="none" xmlns="http://www.w3.org/2000/svg" class=""><path d="M3.602 12.434h7.333c.367 0 .667-.3.667-.667 0-.366-.3-.666-.667-.666H3.602c-.366 0-.666.3-.666.666 0 .367.3.667.666.667Zm0-3.333h5.334c.366 0 .666-.3.666-.667 0-.367-.3-.667-.666-.667H3.602c-.366 0-.666.3-.666.667 0 .367.3.667.666.667Zm-.666-4c0 .366.3.666.666.666h7.333c.367 0 .667-.3.667-.666 0-.367-.3-.667-.667-.667H3.602c-.366 0-.666.3-.666.667Zm11.533 5.253-1.92-1.92 1.92-1.92a.664.664 0 1 0-.94-.94l-2.393 2.393c-.26.26-.26.68 0 .94l2.393 2.394c.26.26.68.26.94 0a.678.678 0 0 0 0-.947Z" fill="#fff"></path></svg>