<svg width="24" height="25" viewBox="0 0 24 25" fill="none" xmlns="http://www.w3.org/2000/svg">
<g id="Group">
<path id="Vector" d="M12 3.33065C13.33 3.33065 14.584 3.65465 15.687 4.22965L16.293 3.62365C16.3853 3.52814 16.4956 3.45196 16.6176 3.39955C16.7396 3.34714 16.8708 3.31955 17.0036 3.3184C17.1364 3.31724 17.2681 3.34255 17.391 3.39283C17.5139 3.44311 17.6255 3.51736 17.7194 3.61125C17.8133 3.70515 17.8875 3.8168 17.9378 3.93969C17.9881 4.06259 18.0134 4.19427 18.0123 4.32705C18.0111 4.45983 17.9835 4.59105 17.9311 4.71305C17.8787 4.83506 17.8025 4.9454 17.707 5.03765L17.357 5.38765C18.1901 6.13713 18.8561 7.0537 19.3115 8.07765C19.7668 9.10161 20.0015 10.21 20 11.3306V19.3306C20 20.1263 19.6839 20.8894 19.1213 21.452C18.5587 22.0146 17.7957 22.3306 17 22.3306H7C6.20436 22.3306 5.44129 22.0146 4.87868 21.452C4.31608 20.8894 4 20.1263 4 19.3306V11.3306C3.99882 10.2101 4.23365 9.10185 4.6892 8.07807C5.14475 7.05429 5.81081 6.13793 6.644 5.38865L6.293 5.03865C6.10536 4.85114 5.9999 4.59677 5.9998 4.3315C5.99971 4.06623 6.105 3.81179 6.2925 3.62415C6.48001 3.43651 6.73438 3.33104 6.99965 3.33095C7.26492 3.33085 7.51936 3.43614 7.707 3.62365L8.313 4.22965C9.45163 3.63733 10.7165 3.32891 12 3.33065ZM18 14.3306H6V19.3306C6 19.5959 6.10536 19.8502 6.2929 20.0378C6.48043 20.2253 6.73479 20.3306 7 20.3306H17C17.2652 20.3306 17.5196 20.2253 17.7071 20.0378C17.8946 19.8502 18 19.5959 18 19.3306V14.3306ZM12 5.33065C10.4476 5.33059 8.95564 5.93221 7.83753 7.00911C6.71942 8.08601 6.06222 9.55436 6.004 11.1056L6 11.3306V12.3306H18V11.3306C18 9.73935 17.3679 8.21323 16.2426 7.08801C15.1174 5.96279 13.5913 5.33065 12 5.33065ZM9 8.33065C9.26522 8.33065 9.51957 8.436 9.70711 8.62354C9.89465 8.81108 10 9.06543 10 9.33065C10 9.59586 9.89465 9.85022 9.70711 10.0378C9.51957 10.2253 9.26522 10.3306 9 10.3306C8.73479 10.3306 8.48043 10.2253 8.2929 10.0378C8.10536 9.85022 8 9.59586 8 9.33065C8 9.06543 8.10536 8.81108 8.2929 8.62354C8.48043 8.436 8.73479 8.33065 9 8.33065ZM15 8.33065C15.2652 8.33065 15.5196 8.436 15.7071 8.62354C15.8946 8.81108 16 9.06543 16 9.33065C16 9.59586 15.8946 9.85022 15.7071 10.0378C15.5196 10.2253 15.2652 10.3306 15 10.3306C14.7348 10.3306 14.4804 10.2253 14.2929 10.0378C14.1054 9.85022 14 9.59586 14 9.33065C14 9.06543 14.1054 8.81108 14.2929 8.62354C14.4804 8.436 14.7348 8.33065 15 8.33065Z" fill="white"/>
</g>
</svg>
