<svg width="24" height="25" viewBox="0 0 24 25" fill="none" xmlns="http://www.w3.org/2000/svg">
<g id="Icons - Action">
<path id="Vector" d="M11.5 23.6252V20.0252C6.49 19.7652 2.5 15.6052 2.5 10.5352C2.5 5.29516 6.76 1.03516 12 1.03516C17.24 1.03516 21.5 5.29516 21.5 10.5352C21.5 15.4852 18.06 20.4652 12.93 22.9352L11.5 23.6252ZM12 3.03516C7.86 3.03516 4.5 6.39516 4.5 10.5352C4.5 14.6752 7.86 18.0352 12 18.0352H13.5V20.3352C17.14 18.0352 19.5 14.2552 19.5 10.5352C19.5 6.39516 16.14 3.03516 12 3.03516ZM11 14.5352H13V16.5352H11V14.5352ZM13 13.0352H11C11 9.78516 14 10.0352 14 8.03516C14 6.93516 13.1 6.03516 12 6.03516C10.9 6.03516 10 6.93516 10 8.03516H8C8 5.82516 9.79 4.03516 12 4.03516C14.21 4.03516 16 5.82516 16 8.03516C16 10.5352 13 10.7852 13 13.0352Z" fill="white"/>
</g>
</svg>
