<svg fill="none" height="31" viewBox="0 0 40 45" width="28" xmlns="http://www.w3.org/2000/svg"><path d="m20.8798 12.2202h-1.8082c-3.6213 0-6.557 2.9103-6.557 6.5004v3.5331c0 3.5901 2.9357 6.5005 6.557 6.5005h1.8082c3.6213 0 6.557-2.9104 6.557-6.5005v-3.5331c0-3.5901-2.9357-6.5004-6.557-6.5004z" fill="#fff"/><g clip-rule="evenodd" fill-rule="evenodd"><path d="m13.9238 28.7535.3511 11.3128 5.2667 3.4808 6.1444-3.4808v-12.444l-5.8811 1.636-5.5563-1.636z" fill="#fff"/><path d="m13.7725 40.1169 6.2497 4.7774v-28.1253h-6.083z" fill="#fff"/><path d="m26.2741 38.8113-6.2497 4.7862v-28.134h6.083z" fill="#dbdbdb"/><path d="m14.3154 12.9414v6.5788l5.7055 3.2981 5.7056-3.2981v-6.5788l-5.7056-3.29815z" fill="#e2e2e2"/><path d="m17.6959.620027c1.4307-.826703 3.1863-.826703 4.6171 0l15.3785 8.928383c1.4308.82669 2.3086 2.36699 2.3086 4.02039v17.8655c0 1.6621-.8778 3.1936-2.3086 4.0203l-15.3785 8.9284c-1.4308.8267-3.1864.8267-4.6171 0l-15.38736-8.9284c-1.430768-.8267-2.30854-2.3669-2.30854-4.0203v-17.8655c0-1.6621.877772-3.1937 2.30854-4.02039zm1.7292 16.412173c.3599-.2088.7988-.2088 1.1586 0l3.8447 2.2365c.3599.2088.5793.5917.5793 1.0094v4.4642c0 .4177-.2194.8006-.5793 1.0095l-3.8447 2.2364c-.3598.2089-.7987.2089-1.1586 0l-3.8447-2.2364c-.3598-.2089-.5793-.5918-.5793-1.0095v-4.4642c0-.4177.2195-.8006.5793-1.0094zm-4.424 12.5311c0-.2437.079-.4786.2107-.6701.0965.1306.2194.2524.3686.3394l3.8447 2.2365c.3599.2088.7988.2088 1.1586 0l3.8447-2.2365c.1492-.087.2721-.2001.3687-.3394.1316.1915.2106.4264.2106.6701v4.4642.087.087 4.4642c0 .4177-.2194.8006-.5793 1.0095l-3.8447 2.2364c-.3598.2089-.7987.2089-1.1586 0l-3.8447-2.2364c-.3598-.2089-.5793-.5918-.5793-1.0095v-4.4642s0-.0609 0-.087 0-.0609 0-.087z" fill="currentColor"/></g></svg>