<svg width="40" height="45" viewBox="0 0 40 45" fill="none" xmlns="http://www.w3.org/2000/svg">
<path d="M20.8798 12.2202H19.0716C15.4503 12.2202 12.5146 15.1305 12.5146 18.7206V22.2537C12.5146 25.8438 15.4503 28.7542 19.0716 28.7542H20.8798C24.5011 28.7542 27.4368 25.8438 27.4368 22.2537V18.7206C27.4368 15.1305 24.5011 12.2202 20.8798 12.2202Z" fill="white"/>
<path fill-rule="evenodd" clip-rule="evenodd" d="M13.9238 28.7535L14.2749 40.0663L19.5416 43.5471L25.686 40.0663V27.6223L19.8049 29.2583L14.2486 27.6223L13.9238 28.7535Z" fill="white"/>
<path fill-rule="evenodd" clip-rule="evenodd" d="M13.7725 40.1169L20.0222 44.8943V16.769H13.9392L13.7725 40.1169Z" fill="white"/>
<path fill-rule="evenodd" clip-rule="evenodd" d="M26.2741 38.8113L20.0244 43.5975V15.4635H26.1074L26.2741 38.8113Z" fill="#DBDBDB"/>
<path fill-rule="evenodd" clip-rule="evenodd" d="M14.3154 12.9414V19.5202L20.0209 22.8183L25.7265 19.5202V12.9414L20.0209 9.64325L14.3154 12.9414Z" fill="#E2E2E2"/>
<path fill-rule="evenodd" clip-rule="evenodd" d="M17.6959 0.620027C19.1266 -0.206676 20.8822 -0.206676 22.313 0.620027L37.6915 9.54841C39.1223 10.3751 40.0001 11.9154 40.0001 13.5688V31.4343C40.0001 33.0964 39.1223 34.6279 37.6915 35.4546L22.313 44.383C20.8822 45.2097 19.1266 45.2097 17.6959 44.383L2.30854 35.4546C0.877772 34.6279 0 33.0877 0 31.4343V13.5688C0 11.9067 0.877772 10.3751 2.30854 9.54841L17.6959 0.620027ZM19.4251 17.0322C19.785 16.8234 20.2239 16.8234 20.5837 17.0322L24.4284 19.2687C24.7883 19.4775 25.0077 19.8604 25.0077 20.2781V24.7423C25.0077 25.16 24.7883 25.5429 24.4284 25.7518L20.5837 27.9882C20.2239 28.1971 19.785 28.1971 19.4251 27.9882L15.5804 25.7518C15.2206 25.5429 15.0011 25.16 15.0011 24.7423V20.2781C15.0011 19.8604 15.2206 19.4775 15.5804 19.2687L19.4251 17.0322ZM15.0011 29.5633C15.0011 29.3196 15.0801 29.0847 15.2118 28.8932C15.3083 29.0238 15.4312 29.1456 15.5804 29.2326L19.4251 31.4691C19.785 31.6779 20.2239 31.6779 20.5837 31.4691L24.4284 29.2326C24.5776 29.1456 24.7005 29.0325 24.7971 28.8932C24.9287 29.0847 25.0077 29.3196 25.0077 29.5633V34.0275C25.0077 34.0275 25.0077 34.0884 25.0077 34.1145C25.0077 34.1406 25.0077 34.1754 25.0077 34.2015V38.6657C25.0077 39.0834 24.7883 39.4663 24.4284 39.6752L20.5837 41.9116C20.2239 42.1205 19.785 42.1205 19.4251 41.9116L15.5804 39.6752C15.2206 39.4663 15.0011 39.0834 15.0011 38.6657V34.2015C15.0011 34.2015 15.0011 34.1406 15.0011 34.1145C15.0011 34.0884 15.0011 34.0536 15.0011 34.0275V29.5633Z" fill="#753BBD"/>
</svg>
